<svg xmlns="http://www.w3.org/2000/svg" xmlns:xlink="http://www.w3.org/1999/xlink" width="1920" zoomAndPan="magnify" viewBox="0 0 1440 809.999993" height="1080" preserveAspectRatio="xMidYMid meet" version="1.0"><defs><clipPath id="473b0c5a54"><path d="M 549.042969 256.636719 L 1041.792969 256.636719 L 1041.792969 299 L 549.042969 299 Z M 549.042969 256.636719 " clip-rule="nonzero"/></clipPath><clipPath id="54d97bfc55"><path d="M 549.042969 397 L 1041.792969 397 L 1041.792969 440 L 549.042969 440 Z M 549.042969 397 " clip-rule="nonzero"/></clipPath><clipPath id="d7eb298e93"><path d="M 549.042969 538 L 1041.792969 538 L 1041.792969 580.636719 L 549.042969 580.636719 Z M 549.042969 538 " clip-rule="nonzero"/></clipPath></defs><rect x="-144" width="1728" fill="#ffffff" y="-80.999999" height="971.999992" fill-opacity="1"/><rect x="-144" width="1728" fill="#ffffff" y="-80.999999" height="971.999992" fill-opacity="1"/><rect x="-144" width="1728" fill="#ffffff" y="-80.999999" height="971.999992" fill-opacity="1"/><g clip-path="url(#473b0c5a54)"><path fill="#000000" d="M 1041.78125 277.851562 C 1041.78125 289.515625 1032.328125 298.96875 1020.664062 298.96875 L 570.171875 298.96875 C 558.507812 298.96875 549.054688 289.515625 549.054688 277.851562 C 549.054688 266.191406 558.507812 256.734375 570.171875 256.734375 L 1020.664062 256.734375 C 1032.328125 256.734375 1041.78125 266.191406 1041.78125 277.851562 Z M 1041.78125 277.851562 " fill-opacity="1" fill-rule="evenodd"/></g><g clip-path="url(#54d97bfc55)"><path fill="#000000" d="M 1041.78125 418.640625 C 1041.78125 430.304688 1032.328125 439.757812 1020.664062 439.757812 L 570.171875 439.757812 C 558.507812 439.757812 549.054688 430.304688 549.054688 418.640625 C 549.054688 406.976562 558.507812 397.523438 570.171875 397.523438 L 1020.664062 397.523438 C 1032.328125 397.523438 1041.78125 406.976562 1041.78125 418.640625 Z M 1041.78125 418.640625 " fill-opacity="1" fill-rule="evenodd"/></g><g clip-path="url(#d7eb298e93)"><path fill="#000000" d="M 1041.78125 559.429688 C 1041.78125 571.089844 1032.328125 580.546875 1020.664062 580.546875 L 570.171875 580.546875 C 558.507812 580.546875 549.054688 571.089844 549.054688 559.429688 C 549.054688 547.765625 558.507812 538.308594 570.171875 538.308594 L 1020.664062 538.308594 C 1032.328125 538.308594 1041.78125 547.765625 1041.78125 559.429688 Z M 1041.78125 559.429688 " fill-opacity="1" fill-rule="evenodd"/></g></svg>